<svg width="41" height="16" viewBox="0 0 41 16" fill="none" xmlns="http://www.w3.org/2000/svg">
<path d="M6.016 11.296L3.264 11.504L1.36 11.664L0.368 11.744C0.282667 11.744 0.202667 11.6907 0.128 11.584C0.0640001 11.4773 0.0320001 11.376 0.0320001 11.28C0.0320001 11.2053 0.0533334 11.152 0.0960002 11.12C0.149333 11.0773 0.202667 11.0507 0.256 11.04C0.32 11.0187 0.362667 11.0027 0.384 10.992C0.394667 10.416 0.4 9.072 0.4 6.96C0.4 5.40267 0.336 4.19733 0.208 3.344C0.0906668 2.48 0.0320001 2.016 0.0320001 1.952C0.0320001 1.80267 0.0853334 1.68533 0.192 1.6C0.309333 1.51467 0.426667 1.472 0.544 1.472C0.618667 1.472 0.677333 1.504 0.72 1.568C0.762667 1.62133 0.794667 1.712 0.816 1.84C0.922667 2.20267 1.00267 2.86933 1.056 3.84C1.12 4.81067 1.152 5.824 1.152 6.88C1.152 7.776 1.14667 8.608 1.136 9.376C1.12533 10.144 1.12 10.6613 1.12 10.928C1.25867 10.9173 1.52533 10.9013 1.92 10.88C2.31467 10.848 2.72 10.816 3.136 10.784C3.75467 10.7093 4.45333 10.5973 5.232 10.448C5.86133 10.3307 6.24 10.272 6.368 10.272C6.48533 10.272 6.56 10.3253 6.592 10.432C6.624 10.5387 6.64 10.6667 6.64 10.816C6.64 10.9547 6.576 11.0667 6.448 11.152C6.33067 11.2373 6.18667 11.2853 6.016 11.296ZM11.5231 11.952C10.9471 11.952 10.4031 11.8347 9.89113 11.6C9.37913 11.3547 8.96313 10.9973 8.64313 10.528C8.32313 10.0587 8.16313 9.49333 8.16313 8.832C8.16313 7.70133 8.45646 6.53333 9.04313 5.328C9.62979 4.112 10.4458 2.97067 11.4911 1.904C11.5978 1.808 11.6991 1.744 11.7951 1.712C11.8911 1.68 12.0031 1.664 12.1311 1.664C12.2378 1.664 12.3391 1.69067 12.4351 1.744C12.5418 1.79733 12.5951 1.86133 12.5951 1.936C12.5951 1.97867 12.5738 2.04267 12.5311 2.128C12.4991 2.20267 12.4778 2.25067 12.4671 2.272C12.5311 2.272 12.6058 2.26667 12.6911 2.256C12.7871 2.23467 12.9685 2.224 13.2351 2.224C13.5445 2.224 13.9605 2.27733 14.4831 2.384C15.0165 2.48 15.4058 2.58133 15.6511 2.688C16.3445 2.99733 16.8725 3.39733 17.2351 3.888C17.5978 4.368 17.7791 4.88533 17.7791 5.44C17.7791 6.53867 17.4698 7.58933 16.8511 8.592C16.2325 9.59467 15.4378 10.4053 14.4671 11.024C13.4965 11.6427 12.5151 11.952 11.5231 11.952ZM15.3791 3.296C15.0698 3.15733 14.6805 3.088 14.2111 3.088C14.0618 3.088 13.8591 3.09867 13.6031 3.12L13.0111 3.136C12.4991 3.136 12.2431 3.02933 12.2431 2.816C12.2431 2.74133 12.2485 2.672 12.2591 2.608C12.2698 2.544 12.2805 2.50133 12.2911 2.48C12.0671 2.48 11.8858 2.544 11.7471 2.672C10.8725 3.57867 10.1951 4.544 9.71513 5.568C9.24579 6.592 9.01113 7.58933 9.01113 8.56C9.01113 9.46667 9.23513 10.128 9.68313 10.544C10.1418 10.9493 10.7658 11.152 11.5551 11.152C12.4511 11.152 13.3258 10.896 14.1791 10.384C15.0431 9.872 15.7418 9.2 16.2751 8.368C16.8191 7.536 17.0911 6.672 17.0911 5.776C17.0911 5.15733 16.9471 4.656 16.6591 4.272C16.3711 3.87733 15.9445 3.552 15.3791 3.296ZM29.5843 14.8C29.5843 14.8747 29.5416 14.9333 29.4563 14.976C29.3816 15.0187 29.2963 15.04 29.2003 15.04C28.9656 15.04 28.7683 14.9707 28.6083 14.832C28.4589 14.704 28.3843 14.512 28.3843 14.256C28.3843 12.912 28.3949 11.8133 28.4163 10.96L28.4483 9.536C28.4803 8.544 28.4963 7.80267 28.4963 7.312C27.4296 9.69067 26.3843 11.4827 25.3603 12.688C24.3363 13.904 23.1896 14.512 21.9203 14.512C20.9816 14.512 20.2936 14.224 19.8563 13.648C19.4189 13.072 19.2003 12.176 19.2003 10.96C19.2003 9.328 19.5683 7.73333 20.3043 6.176C21.0403 4.608 21.9843 3.33333 23.1363 2.352C24.2989 1.37067 25.4723 0.879999 26.6562 0.879999C27.0296 0.879999 27.2803 0.997333 27.4083 1.232C27.5469 1.46667 27.6163 1.712 27.6163 1.968C27.6163 2.23467 27.5896 2.448 27.5363 2.608C27.4936 2.75733 27.4403 2.832 27.3763 2.832C27.3229 2.832 27.2803 2.784 27.2483 2.688C27.2269 2.592 27.2003 2.42133 27.1683 2.176C27.1363 1.94133 27.0829 1.77067 27.0083 1.664C26.9336 1.54667 26.8003 1.488 26.6083 1.488C25.6269 1.488 24.6136 1.968 23.5683 2.928C22.5336 3.888 21.6696 5.104 20.9763 6.576C20.2936 8.03733 19.9523 9.46667 19.9523 10.864C19.9523 11.7493 20.0963 12.4373 20.3843 12.928C20.6829 13.4293 21.2163 13.68 21.9843 13.68C22.8163 13.68 23.5896 13.3547 24.3043 12.704C25.0189 12.0533 25.6536 11.2533 26.2083 10.304C26.7736 9.344 27.4403 8.07467 28.2083 6.496C27.6643 6.60267 26.9016 6.816 25.9203 7.136C25.5043 7.27467 25.2963 7.344 25.2963 7.344L24.7043 7.536C24.3096 7.67467 23.9896 7.78133 23.7443 7.856C23.4989 7.92 23.2963 7.952 23.1363 7.952C23.0296 7.952 22.9443 7.904 22.8802 7.808C22.8269 7.70133 22.8003 7.58933 22.8003 7.472C22.8003 7.32267 23.0189 7.17333 23.4563 7.024C23.8936 6.864 24.5496 6.688 25.4243 6.496C25.7656 6.42133 26.2563 6.29333 26.8963 6.112C27.0029 6.08 27.3229 5.99467 27.8563 5.856C28.4003 5.71733 28.7789 5.648 28.9923 5.648C29.0136 5.648 29.0723 5.648 29.1683 5.648C29.2749 5.648 29.3496 5.69067 29.3923 5.776C29.4349 5.85067 29.4563 5.97333 29.4563 6.144C29.4563 6.24 29.3923 6.32533 29.2643 6.4L29.2483 7.632C29.2163 8.464 29.2003 9.37067 29.2003 10.352V12.624V13.504C29.2216 13.8667 29.2589 14.1227 29.3123 14.272C29.3656 14.432 29.4243 14.544 29.4883 14.608C29.5523 14.6827 29.5843 14.7467 29.5843 14.8ZM34.57 11.952C33.994 11.952 33.45 11.8347 32.938 11.6C32.426 11.3547 32.01 10.9973 31.69 10.528C31.37 10.0587 31.21 9.49333 31.21 8.832C31.21 7.70133 31.5033 6.53333 32.09 5.328C32.6767 4.112 33.4927 2.97067 34.538 1.904C34.6447 1.808 34.746 1.744 34.842 1.712C34.938 1.68 35.05 1.664 35.178 1.664C35.2847 1.664 35.386 1.69067 35.482 1.744C35.5887 1.79733 35.642 1.86133 35.642 1.936C35.642 1.97867 35.6207 2.04267 35.578 2.128C35.546 2.20267 35.5247 2.25067 35.514 2.272C35.578 2.272 35.6527 2.26667 35.738 2.256C35.834 2.23467 36.0153 2.224 36.282 2.224C36.5913 2.224 37.0073 2.27733 37.53 2.384C38.0633 2.48 38.4527 2.58133 38.698 2.688C39.3913 2.99733 39.9193 3.39733 40.282 3.888C40.6447 4.368 40.826 4.88533 40.826 5.44C40.826 6.53867 40.5167 7.58933 39.898 8.592C39.2793 9.59467 38.4847 10.4053 37.514 11.024C36.5433 11.6427 35.562 11.952 34.57 11.952ZM38.426 3.296C38.1167 3.15733 37.7273 3.088 37.258 3.088C37.1087 3.088 36.906 3.09867 36.65 3.12L36.058 3.136C35.546 3.136 35.29 3.02933 35.29 2.816C35.29 2.74133 35.2953 2.672 35.306 2.608C35.3167 2.544 35.3273 2.50133 35.338 2.48C35.114 2.48 34.9327 2.544 34.794 2.672C33.9193 3.57867 33.242 4.544 32.762 5.568C32.2927 6.592 32.058 7.58933 32.058 8.56C32.058 9.46667 32.282 10.128 32.73 10.544C33.1887 10.9493 33.8127 11.152 34.602 11.152C35.498 11.152 36.3727 10.896 37.226 10.384C38.09 9.872 38.7887 9.2 39.322 8.368C39.866 7.536 40.138 6.672 40.138 5.776C40.138 5.15733 39.994 4.656 39.706 4.272C39.418 3.87733 38.9913 3.552 38.426 3.296Z" fill="black"/>
</svg>
